<?xml version="1.0" encoding="UTF-8"?>
<svg id="Layer_1" data-name="Layer 1" xmlns="http://www.w3.org/2000/svg" viewBox="0 0 500 500">
  <defs>
    <style>
      .cls-1 {
        fill: #fff;
      }

      .cls-2 {
        fill: #155dfc;
      }
    </style>
  </defs>
  <path class="cls-2" d="M373.75,163.69c-.08-.1-.17-.19-.27-.29l-57.62-59.73c-.14-.15-.27-.3-.41-.44l-1.19-1.23s-.04-.04-.06-.06c-3.61-3.52-6.75-4.91-13.08-4.91h-160.89c-11.28,0-20.47,9.19-20.47,20.47v265c0,11.29,9.19,20.47,20.47,20.47h219.53c11.29,0,20.47-9.18,20.47-20.47v-202.79c0-6.18-1.88-11.24-6.48-16.02ZM309.64,114.49l53.83,55.81h-49.83c-2.2,0-4-1.8-4-4v-51.81ZM368.23,382.5c0,4.67-3.8,8.47-8.47,8.47h-219.53c-4.67,0-8.47-3.8-8.47-8.47V117.5c0-4.67,3.8-8.47,8.47-8.47h157.41v57.27c0,8.82,7.18,16,16,16h54.59v200.2Z"/>
  <path class="cls-2" d="M313.76,287.2c0,35.21-28.55,63.76-63.77,63.76s-63.76-28.55-63.76-63.76c0-15.29,5.38-29.33,14.35-40.32,3.03-3.71,6.47-7.07,10.25-10.01,10.8-8.43,24.4-13.44,39.16-13.44,13.53,0,26.08,4.21,36.4,11.4,3.95,2.76,7.59,5.95,10.81,9.5,10.29,11.33,16.56,26.36,16.56,42.86Z"/>
  <rect class="cls-2" x="222.75" y="200.22" width="54.49" height="14.31" rx="7.16" ry="7.16"/>
  <path class="cls-2" d="M205.36,231.85c-3.72,3.01-7.14,6.38-10.2,10.07l-6.61-6.05c-2.91-2.67-3.12-7.2-.44-10.11,1.41-1.54,3.34-2.32,5.28-2.32,1.72,0,3.46.62,4.83,1.88l7.13,6.54Z"/>
  <path class="cls-2" d="M306.45,235.87l-3.83,3.51c-3.24-3.55-6.82-6.78-10.7-9.61l4.86-4.45c1.37-1.26,3.11-1.88,4.84-1.88,1.94,0,3.86.78,5.27,2.32,2.67,2.91,2.47,7.44-.44,10.11Z"/>
  <path class="cls-1" d="M294.15,268.07l-44.57,13.16c-3.05.9-4.73,4.18-3.66,7.18h0c1.06,3,4.43,4.5,7.37,3.28l42.92-17.82c1.51-.63,2.27-2.33,1.72-3.88h0c-.55-1.54-2.21-2.39-3.78-1.93Z"/>
</svg>