<?xml version="1.0" encoding="UTF-8"?>
<svg id="Layer_1" data-name="Layer 1" xmlns="http://www.w3.org/2000/svg" viewBox="0 0 500 500">
  <defs>
    <style>
      .cls-1 {
        fill: #155dfc;
      }
    </style>
  </defs>
  <g>
    <path class="cls-1" d="M147.81,372.54c-.4-3.8-5.3-9.17-7.95-12.34-18.3-21.87-53.26-51.83-62.7-77.86-9.33-25.72-13.08-57.13-20.65-83.72,1.35-13.27,11.88-23.59,25.47-18.19,11.84,4.7,20.91,35.22,26.81,46.38,5.21-.23,7.88-3.11,13.67-2.93,12.49.38,18.88,14.76,26.75,22.63,22.53,22.54,74.79,41.3,86.8,68.25,6.14,13.79,6.47,75.75,4.56,92.58-.31,2.72-.75,5.29-2.91,7.24l-89.86-.74v-41.3ZM157.23,360.23h70.28v-32.6c0-20.99-61.39-49.45-77.48-63.08-4.78-4.05-25.4-27.31-27.64-27.54-5.59-.57-6.08,4.35-3.91,8.37l49.05,64.1c2.19,7.36-5.42,11.18-10.93,6.46-14.21-21.72-35.65-42.13-49.1-63.92-5.15-8.35-26.41-57.44-29.21-59.2-5.25-2.43-9.6,1.62-8.66,7.08,6.89,23.5,10.42,48.98,17.74,72.25,5.56,17.66,13.48,25.14,24.92,38.83,14.2,17,29.94,32.96,44.94,49.25ZM227.51,373.27h-68.11v28.98h68.11v-28.98Z"/>
    <path class="cls-1" d="M352.13,413.84l-89.86.74c-2.16-1.95-2.6-4.52-2.91-7.24-1.91-16.83-1.58-78.79,4.56-92.58,12.11-27.18,60.83-43.77,83.17-64.63,13.81-12.89,20.88-34.37,44.1-23.24,6.29-11.22,14.7-41.67,26.76-46.46,13.51-5.36,26.09,6.05,25.52,19.6-.55,12.92-12.51,54.3-16.7,68.91-12.14,42.33-47.88,67.52-74.64,100.7v44.2ZM272.43,360.23h70.28c15.32-16.9,31.84-33.14,46.39-50.7,10.89-13.13,18.19-20.59,23.48-37.39,7.2-22.89,10.61-47.93,17.52-71.01,1.2-5.14-3.06-11.67-8.44-8.32l-29.21,59.19-49.1,63.92c-5.51,4.72-13.12.9-10.93-6.46l49.05-64.1c2.17-4.02,1.68-8.94-3.91-8.37-4.27.43-6.09,6.09-8.74,8.77-11.21,11.31-21.33,21.6-34.76,30.45s-61.63,32.37-61.63,51.4v32.6ZM340.54,373.27h-68.11v28.98h68.11v-28.98Z"/>
  </g>
  <g>
    <path class="cls-1" d="M173.19,207.75c23.37.75,45.09,6.66,66.29,16.03,2.5,1.1,7.86,4.58,9.89,5.01,2.36.5,6.61-4.28,10.35-.07,5.26,5.93-5.93,12.54-10.61,11.94-3.02-.39-12.39-6.23-16.09-7.84-17.95-7.84-36.75-12.33-56.29-14.09-4.77-.43-13.72,1.97-14.55-4.82l-.08-60.29-63.84-24.29c-2.74-2.61-2.54-5.7.34-8.1l151.1-56.19,152.49,56.38c2.94,4.63,1.24,7.41-3.25,9.63l-66.62,24.32c-9.38.05-4.08-20.49-5.56-26.32-32.87-11.93-65.79-17.97-100.88-13.53-18.34,2.32-35.19,8.08-52.71,13.47v78.77ZM162.21,141.9v-17.75c0-2.8,6.88-4.99,9.06-5.79,42.16-15.4,83.31-20.31,127.44-9.34,8.88,2.21,27.54,7.34,35.24,11.25,1.11.56,3.87,2.74,3.87,3.88v17.75l43.9-16.78-131.37-48.46-132.04,48.46,43.9,16.78Z"/>
    <path class="cls-1" d="M250.08,240.66c3.02-.38,12.39-6.22,16.09-7.84,17.95-7.85,36.74-12.34,56.29-14.09,4.76-.43,13.72,1.98,14.54-4.82l.09-60.28.05-.02v-11.78s-.16.07-.16.07v-12.84s-10.97,0-10.97,0v78.7c-23.38.75-45.1,6.65-66.3,16.02-2.49,1.1-7.85,4.58-9.89,5-2.35.49-6.61-4.28-10.35-.07-5.26,5.93,5.93,12.54,10.61,11.94Z"/>
  </g>
</svg>