<?xml version="1.0" encoding="UTF-8"?>
<svg id="Layer_1" data-name="Layer 1" xmlns="http://www.w3.org/2000/svg" viewBox="0 0 500 500">
  <defs>
    <style>
      .cls-1 {
        fill: #155dfc;
      }
    </style>
  </defs>
  <path class="cls-1" d="M449.2,407.94l-398.4-.54v-151.44l109.49-55.8,106,31.37v-93.36l87.12-46.11,95.79,59.96v255.92ZM340.65,121.89l-32.57,16.01v20.9l32.57-14.11v-22.8ZM404.69,166.4v-20.9l-40.17-23.07v22.8l40.17,21.17ZM301.02,141.43l-28.22,13.57v20.08l28.22-12.76v-20.9ZM444.32,187.03v-18.73c-10.24-5.94-20.66-12.81-31.12-18.27-.81-.42-1.54-1.09-2.53-1v20.35l33.65,17.64ZM340.65,156.09l-32.57,14.38v20.9l32.57-12.76v-22.53ZM404.69,197.88v-20.9l-40.17-20.35v22.53l40.17,18.73ZM301.02,173.46l-28.22,11.94v20.08l28.22-11.13v-20.9ZM444.32,215.79v-18.73l-33.65-17.1v20.35l33.65,15.47ZM340.65,190.83l-32.57,12.21v20.9l32.57-11.13v-21.98ZM404.69,208.19l-40.17-17.37v22.53l40.17,16.01v-21.17ZM301.02,205.48l-27.84,10.28c-1.23.97-1.34,15.74-.54,17.26.45.87,2.32,1.57,3.3,1.67,4.7.5,18.19-6.85,23.78-7.45l1.31-.86v-20.9ZM444.32,244.56v-18.73l-33.65-14.93v20.35l33.65,13.3ZM318.39,263.02l-141.67-38v22.53l141.67,33.92v-18.45ZM340.65,225.02l-32.6,10.1c.55,2.53-1.17,8.25,1.26,9.57l20.24,5.86,11.1-2.73v-22.8ZM404.69,239.68l-40.17-14.66v23.34l40.17,12.48v-21.17ZM58.4,285.27l87.93-35.55v-22.53l-87.81,40.28c-.76.61-.12,1.4-.12,1.78v16.01ZM301.02,237.51c-.22-.23-5.53,1.29-6.3,1.57s-.92-.19-.76,1.14l7.05,1.63v-4.34ZM444.32,254.33l-33.65-11.94v20.63l33.65,10.31v-19ZM340.65,259.22l-10.31,2.99v21.98l10.31-2.44v-22.53ZM318.39,290.15l-141.67-30.4v22.8l141.67,26.05v-18.45ZM404.69,271.16l-40.17-11.4v22.8l40.17,9.77v-21.17ZM146.33,261.39l-87.62,32.63-.62.47c-.24.38.31.71.31.83v16.55l87.93-27.68v-22.8ZM444.32,283.1l-33.65-9.77v20.63l33.65,8.14v-19ZM330.33,317.84c3.32-.14,7.42-.36,10.31-1.9v-21.71c-.41-.54-.47-.61-1.12-.6-2.51.03-6.5,1.74-9.2,1.96v22.25ZM318.39,317.29l-141.67-23.34v22.8l141.67,19v-18.45ZM404.69,302.64l-40.17-8.68v22.8l40.17,7.06v-21.17ZM146.33,295.04l-88.35,25.78c.02.25.42.42.42.55v16.55l87.93-20.08v-22.8ZM444.32,311.87l-33.65-7.6v20.35l32.53,6.58,1.12-.61v-18.73ZM318.39,344.43l-141.67-16.28v21.98l141.67,12.21v-17.91ZM340.65,328.15l-10.31,1.09v21.98c.41.55.47.59,1.11.59,2.95,0,6.23-.9,9.2-.86v-22.8ZM404.69,334.12l-40.17-5.97v22.8l40.17,4.34v-21.17ZM146.33,329.24l-87.93,17.37v16.55c0,.12-.81.62-.54.81l87.1-11.95,1.37-.8v-21.98ZM444.32,340.63l-33.65-4.89v20.63l33.65,2.99v-18.73ZM318.39,371.57l-141.67-9.23v22.53l141.67,5.16v-18.45ZM330.33,363.7v21.98l9.77-.55v-22.5c0-.5-9.46.08-9.77,1.07ZM146.33,362.89l-87.93,9.77v16.55c0,.21-.96.62.28,1.36l87.65-4.89v-22.8ZM404.69,366.15l-40.17-3.26v21.98l40.17,2.44v-21.17ZM444.32,369.94l-33.65-2.71v20.08l33.65,1.63v-19Z"/>
</svg>