<?xml version="1.0" encoding="UTF-8"?>
<svg id="Layer_1" data-name="Layer 1" xmlns="http://www.w3.org/2000/svg" viewBox="0 0 500 500">
  <defs>
    <style>
      .cls-1 {
        fill: #155dfc;
      }
    </style>
  </defs>
  <path class="cls-1" d="M379.55,121.03h-219.53c-11.28,0-20.47,9.19-20.47,20.47v265c0,11.29,9.19,20.47,20.47,20.47h219.53c11.29,0,20.47-9.18,20.47-20.47V141.5c0-11.28-9.18-20.47-20.47-20.47ZM388.02,406.5c0,4.67-3.8,8.47-8.47,8.47h-219.53c-4.67,0-8.47-3.8-8.47-8.47V141.5c0-4.67,3.8-8.47,8.47-8.47h219.53c4.67,0,8.47,3.8,8.47,8.47v265Z"/>
  <path class="cls-1" d="M339.98,84.33H120.45c-11.29,0-20.47,9.18-20.47,20.47v265c0,11.28,9.18,20.47,20.47,20.47h31.1v-12h-31.1c-4.67,0-8.47-3.8-8.47-8.47V104.8c0-4.67,3.8-8.47,8.47-8.47h219.53c4.67,0,8.47,3.8,8.47,8.47v28.23h12v-28.23c0-11.29-9.18-20.47-20.47-20.47Z"/>
  <path class="cls-1" d="M360.45,187.29h-175.91c-2.76,0-5-2.24-5-5s2.24-5,5-5h175.91c2.76,0,5,2.24,5,5s-2.24,5-5,5Z"/>
  <path class="cls-1" d="M360.45,229.65h-175.91c-2.76,0-5-2.24-5-5s2.24-5,5-5h175.91c2.76,0,5,2.24,5,5s-2.24,5-5,5Z"/>
  <path class="cls-1" d="M360.45,272h-175.91c-2.76,0-5-2.24-5-5s2.24-5,5-5h175.91c2.76,0,5,2.24,5,5s-2.24,5-5,5Z"/>
  <path class="cls-1" d="M360.45,314.35h-175.91c-2.76,0-5-2.24-5-5s2.24-5,5-5h175.91c2.76,0,5,2.24,5,5s-2.24,5-5,5Z"/>
  <path class="cls-1" d="M281.82,362h-99.99c-2.76,0-5-2.24-5-5s2.24-5,5-5h99.99c2.76,0,5,2.24,5,5s-2.24,5-5,5Z"/>
</svg>