<?xml version="1.0" encoding="UTF-8"?>
<svg id="Layer_1" data-name="Layer 1" xmlns="http://www.w3.org/2000/svg" viewBox="0 0 500 500">
  <defs>
    <style>
      .cls-1 {
        fill: #155dfc;
      }
    </style>
  </defs>
  <g>
    <path class="cls-1" d="M147.81,375.24c-.4-3.8-5.3-9.17-7.95-12.34-18.3-21.87-53.26-51.83-62.7-77.86-9.33-25.72-13.08-57.13-20.65-83.72,1.35-13.27,11.88-23.59,25.47-18.19,11.84,4.7,20.91,35.22,26.81,46.38,5.21-.23,7.88-3.11,13.67-2.93,12.49.38,18.88,14.76,26.75,22.63,22.53,22.54,74.79,41.3,86.8,68.25,6.14,13.79,6.47,75.75,4.56,92.58-.31,2.72-.75,5.29-2.91,7.24l-89.86-.74v-41.3ZM157.23,362.93h70.28v-32.6c0-20.99-61.39-49.45-77.48-63.08-4.78-4.05-25.4-27.31-27.64-27.54-5.59-.57-6.08,4.35-3.91,8.37l49.05,64.1c2.19,7.36-5.42,11.18-10.93,6.46-14.21-21.72-35.65-42.13-49.1-63.92-5.15-8.35-26.41-57.44-29.21-59.2-5.25-2.43-9.6,1.62-8.66,7.08,6.89,23.5,10.42,48.98,17.74,72.25,5.56,17.66,13.48,25.14,24.92,38.83,14.2,17,29.94,32.96,44.94,49.25ZM227.51,375.97h-68.11v28.98h68.11v-28.98Z"/>
    <path class="cls-1" d="M352.13,416.54l-89.86.74c-2.16-1.95-2.6-4.52-2.91-7.24-1.91-16.83-1.58-78.79,4.56-92.58,12.11-27.18,60.83-43.77,83.17-64.63,13.81-12.89,20.88-34.37,44.1-23.24,6.29-11.22,14.7-41.67,26.76-46.46,13.51-5.36,26.09,6.05,25.52,19.6-.55,12.92-12.51,54.3-16.7,68.91-12.14,42.33-47.88,67.52-74.64,100.7v44.2ZM272.43,362.93h70.28c15.32-16.9,31.84-33.14,46.39-50.7,10.89-13.13,18.19-20.59,23.48-37.39,7.2-22.89,10.61-47.93,17.52-71.01,1.2-5.14-3.06-11.67-8.44-8.32l-29.21,59.19-49.1,63.92c-5.51,4.72-13.12.9-10.93-6.46l49.05-64.1c2.17-4.02,1.68-8.94-3.91-8.37-4.27.43-6.09,6.09-8.74,8.77-11.21,11.31-21.33,21.6-34.76,30.45s-61.63,32.37-61.63,51.4v32.6ZM340.54,375.97h-68.11v28.98h68.11v-28.98Z"/>
  </g>
  <path class="cls-1" d="M301.21,204.03h-102.38v-39.77c0-1.1,4.62-11.15,5.64-12.65,5.97-8.79,16.37-13.64,26.78-14.36,10.8-.75,38.95-1.22,48.29,2.07,8.31,2.93,21.69,15.9,21.69,24.94v39.77Z"/>
  <path class="cls-1" d="M191.51,204.03h-66.73v-28.8c0-7.12,10.13-16.88,16.66-18.99,8.31-2.69,37.49-2.69,45.5.71,1.74.74,5.24,2.65,5.54,4.59l-.97,42.49Z"/>
  <path class="cls-1" d="M375.26,204.03h-66.73l-.97-42.49c.29-1.95,3.79-3.85,5.54-4.59,8.01-3.4,37.2-3.4,45.5-.71,6.53,2.12,16.66,11.88,16.66,18.99v28.8Z"/>
  <path class="cls-1" d="M246.16,71.74c40.08-4.72,43.55,53.52,9.72,58.16-42.11,5.77-47.24-53.75-9.72-58.16Z"/>
  <path class="cls-1" d="M161.16,104.58c23.93-2.13,32.53,31.44,11.62,40.95-32.42,14.75-43.98-38.08-11.62-40.95Z"/>
  <path class="cls-1" d="M335.78,104.6c23.24-1.63,31.71,31.92,10.23,41.38-31.35,13.82-44.15-39-10.23-41.38Z"/>
</svg>